<svg xmlns="http://www.w3.org/2000/svg" viewBox="0 0 32 32" fill="none">
  <defs>
    <linearGradient id="fg" x1="0" y1="0" x2="32" y2="32" gradientUnits="userSpaceOnUse">
      <stop offset="0%" stop-color="#39ff14"/>
      <stop offset="50%" stop-color="#00f0ff"/>
      <stop offset="100%" stop-color="#ff00ff"/>
    </linearGradient>
  </defs>
  <rect width="32" height="32" rx="8" fill="#0a0a12"/>
  <path d="M16 6c-3 0-5 2-5 5 0 2 1 3 2 4-2 1-3 3-3 6 0 4 3 7 7 7h-2c-1 0-2 1-2 2s1 2 2 2h10c1 0 2-1 2-2s-1-2-2-2h-2c4 0 7-3 7-7 0-3-1-5-3-6 1-1 2-2 2-4 0-3-2-5-5-5-1 0-3 1-4 2-1-1-3-2-4-2z" fill="url(#fg)"/>
  <circle cx="16" cy="17" r="2" fill="#0a0a12"/>
</svg>
